<svg width="108" height="25" viewBox="0 0 108 25" fill="none" xmlns="http://www.w3.org/2000/svg">
<path d="M24 12.5212C24 5.85308 18.6277 0.447754 12.0015 0.447754C5.37233 0.449254 0 5.85308 0 12.5227C0 18.5475 4.38845 23.5419 10.1237 24.4478V16.0113H7.07911V12.5227H10.1267V9.86058C10.1267 6.83546 11.919 5.16466 14.6592 5.16466C15.973 5.16466 17.3453 5.40014 17.3453 5.40014V8.36976H15.832C14.3427 8.36976 13.8778 9.30115 13.8778 10.2565V12.5212H17.2043L16.6734 16.0098H13.8763V24.4463C19.6115 23.5404 24 18.546 24 12.5212Z" fill="#999695"/>
<path d="M45.718 17.8938L46.941 8.09612L47.697 8.09759L46.474 17.8952L45.718 17.8938ZM40.4172 15.2235L40.4187 14.4535L48.8886 14.4699L48.8872 15.2399L40.4172 15.2235ZM42.078 17.8867L43.301 8.08905L44.071 8.09054L42.834 17.8882L42.078 17.8867ZM40.8724 11.5143L40.8739 10.7443L49.3439 10.7608L49.3424 11.5308L40.8724 11.5143ZM52.9838 12.8539L58.1638 12.8639L58.1621 13.7599L52.9821 13.7499L52.9838 12.8539ZM53.086 17.9081L52.05 17.9061L52.0691 8.10608L58.7891 8.11914L58.7873 9.01514L53.1033 9.00409L53.086 17.9081ZM61.6094 17.9246L61.6284 8.12466L62.6644 8.12667L62.6471 17.0307L68.1351 17.0413L68.1334 17.9373L61.6094 17.9246ZM74.6459 18.034C73.9086 18.0325 73.2228 17.9099 72.5886 17.666C71.9638 17.4128 71.4185 17.0617 70.9527 16.6128C70.4962 16.1546 70.1379 15.6265 69.8778 15.0287C69.6269 14.4215 69.5022 13.7586 69.5036 13.04C69.505 12.3213 69.6323 11.6635 69.8855 11.0667C70.148 10.4605 70.5083 9.93391 70.9665 9.4868C71.4341 9.03038 71.9808 8.68144 72.6066 8.43999C73.2324 8.1892 73.9186 8.06454 74.6653 8.06599C75.4026 8.06742 76.0837 8.19474 76.7086 8.44796C77.3334 8.69184 77.8741 9.03822 78.3305 9.48711C78.7963 9.93602 79.1546 10.464 79.4055 11.0712C79.6656 11.6784 79.795 12.3413 79.7936 13.06C79.7922 13.7786 79.6603 14.441 79.3977 15.0472C79.1446 15.6534 78.7842 16.18 78.3167 16.6271C77.8585 17.0742 77.3165 17.4232 76.6906 17.6739C76.0648 17.9154 75.3833 18.0354 74.6459 18.034ZM74.6477 17.11C75.2357 17.1111 75.7772 17.0142 76.2723 16.8191C76.7767 16.6148 77.2112 16.3309 77.5759 15.9677C77.95 15.595 78.2402 15.1663 78.4465 14.6813C78.6527 14.1871 78.7565 13.6459 78.7576 13.0579C78.7587 12.4699 78.6571 11.9331 78.4527 11.4474C78.2484 10.9523 77.9599 10.5224 77.5872 10.1577C77.224 9.78363 76.7905 9.49812 76.2869 9.30114C75.7926 9.09485 75.2515 8.99113 74.6635 8.98998C74.0755 8.98884 73.5293 9.09045 73.0249 9.2948C72.5205 9.48982 72.0813 9.77364 71.7072 10.1462C71.3425 10.5095 71.0524 10.9383 70.8367 11.4326C70.6305 11.9175 70.5268 12.454 70.5256 13.042C70.5245 13.6206 70.6261 14.1575 70.8305 14.6525C71.0442 15.1476 71.3327 15.5822 71.696 15.9562C72.0686 16.321 72.5067 16.6065 73.0103 16.8128C73.5139 17.0098 74.0597 17.1088 74.6477 17.11ZM82.8062 17.9658L82.8253 8.16584L86.4933 8.17297C87.3239 8.17458 88.0377 8.3113 88.6345 8.58313C89.2313 8.84562 89.6879 9.22918 90.0042 9.73379C90.3299 10.2291 90.4921 10.8314 90.4907 11.5407C90.4894 12.2314 90.3249 12.8284 89.9972 13.3318C89.6789 13.8258 89.2209 14.2076 88.623 14.4771C88.0252 14.7373 87.3109 14.8666 86.4802 14.865L83.3863 14.8589L83.8492 14.3838L83.8422 17.9678L82.8062 17.9658ZM89.4982 17.9788L86.9851 14.4179L88.1051 14.4201L90.6322 17.981L89.4982 17.9788ZM83.849 14.4678L83.388 13.9769L86.454 13.9829C87.434 13.9848 88.1764 13.7716 88.6812 13.3432C89.1954 12.9149 89.4532 12.3134 89.4547 11.5387C89.4562 10.7547 89.2008 10.1476 88.6883 9.71724C88.1851 9.28692 87.4435 9.07082 86.4635 9.06891L83.3975 9.06295L83.8605 8.57385L83.849 14.4678ZM93.6234 17.9868L93.6424 8.18686L94.6784 8.18887L94.6594 17.9889L93.6234 17.9868ZM96.98 17.9934L101.479 8.20208L102.501 8.20407L106.962 18.0128L105.87 18.0106L101.772 8.80466L102.192 8.80547L98.058 17.9955L96.98 17.9934ZM98.7491 15.3788L99.0587 14.5394L104.757 14.5505L105.063 15.3911L98.7491 15.3788Z" fill="#999695"/>
</svg>
