<svg width="118" height="46" viewBox="0 0 118 46" fill="none" xmlns="http://www.w3.org/2000/svg">
<path d="M104.518 8.51123C97.4266 8.51123 93.0392 13.1655 93.0392 20.3228L93.0078 31.6225H100.504L100.511 26.2365H108.557L108.588 31.6225H116.028V20.3857C116.028 14.3715 112.655 8.51123 104.518 8.51123ZM108.557 21.4848H100.511V20.3857C100.511 17.5058 101.066 14.1485 104.455 14.0857C107.746 14.0543 108.557 17.2828 108.557 20.3857V21.4848Z" fill="#999695"/>
<path d="M117.4 9.88365C117.014 10.2574 116.546 10.4458 116.006 10.4458C115.466 10.4458 114.973 10.2542 114.586 9.87109C114.203 9.48794 114.012 9.01372 114.012 8.4547C114.012 7.89568 114.219 7.38691 114.634 7.00062C115.023 6.63946 115.481 6.46045 116.006 6.46045C116.53 6.46045 117.027 6.65516 117.416 7.04459C117.806 7.43402 118 7.9051 118 8.4547C118 9.0043 117.802 9.49736 117.404 9.88679M114.838 7.29584C114.52 7.61931 114.363 8.0056 114.363 8.45156C114.363 8.89752 114.524 9.30893 114.847 9.62927C115.167 9.95274 115.554 10.1161 116.006 10.1161C116.458 10.1161 116.844 9.95274 117.165 9.62927C117.485 9.30265 117.645 8.91008 117.645 8.4547C117.645 7.99932 117.485 7.62559 117.168 7.29898C116.848 6.96608 116.458 6.79963 116.009 6.79963C115.56 6.79963 115.161 6.96608 114.841 7.29898M115.13 9.56017V7.35237C115.268 7.35237 115.472 7.35237 115.745 7.35237C116.019 7.35237 116.169 7.35237 116.201 7.35551C116.377 7.36807 116.521 7.40576 116.634 7.46857C116.832 7.57535 116.929 7.75122 116.929 7.99618C116.929 8.18147 116.876 8.31651 116.772 8.40131C116.669 8.4861 116.54 8.53321 116.389 8.55206C116.53 8.58032 116.634 8.62115 116.706 8.67768C116.835 8.78132 116.901 8.94463 116.901 9.17074V9.3686C116.901 9.39058 116.901 9.40943 116.907 9.43141C116.907 9.45339 116.917 9.47538 116.923 9.49736L116.945 9.56017H116.389C116.37 9.48794 116.358 9.38744 116.351 9.25554C116.345 9.12364 116.333 9.03256 116.314 8.98545C116.285 8.91008 116.232 8.85355 116.15 8.82528C116.106 8.80644 116.041 8.79388 115.953 8.79074L115.827 8.78132H115.704V9.56017H115.127H115.13ZM116.185 7.77948C116.106 7.74808 115.993 7.73237 115.849 7.73237H115.708V8.38247H115.934C116.069 8.38247 116.176 8.3542 116.251 8.30081C116.326 8.24742 116.364 8.15635 116.364 8.03387C116.364 7.91138 116.304 7.82659 116.185 7.77948Z" fill="#999695"/>
<path d="M117.4 9.88365C117.014 10.2574 116.546 10.4458 116.006 10.4458C115.466 10.4458 114.973 10.2542 114.586 9.87109C114.203 9.48794 114.012 9.01372 114.012 8.4547C114.012 7.89568 114.219 7.38691 114.634 7.00062C115.023 6.63946 115.481 6.46045 116.006 6.46045C116.53 6.46045 117.027 6.65516 117.416 7.04459C117.806 7.43402 118 7.9051 118 8.4547C118 9.0043 117.802 9.49736 117.404 9.88679M114.838 7.29584C114.52 7.61931 114.363 8.0056 114.363 8.45156C114.363 8.89752 114.524 9.30893 114.847 9.62927C115.167 9.95274 115.554 10.1161 116.006 10.1161C116.458 10.1161 116.844 9.95274 117.165 9.62927C117.485 9.30265 117.645 8.91008 117.645 8.4547C117.645 7.99932 117.485 7.62559 117.168 7.29898C116.848 6.96608 116.458 6.79963 116.009 6.79963C115.56 6.79963 115.161 6.96608 114.841 7.29898M115.13 9.56017V7.35237C115.268 7.35237 115.472 7.35237 115.745 7.35237C116.019 7.35237 116.169 7.35237 116.201 7.35551C116.377 7.36807 116.521 7.40576 116.634 7.46857C116.832 7.57535 116.929 7.75122 116.929 7.99618C116.929 8.18147 116.876 8.31651 116.772 8.40131C116.669 8.4861 116.54 8.53321 116.389 8.55206C116.53 8.58032 116.634 8.62115 116.706 8.67768C116.835 8.78132 116.901 8.94463 116.901 9.17074V9.3686C116.901 9.39058 116.901 9.40943 116.907 9.43141C116.907 9.45339 116.917 9.47538 116.923 9.49736L116.945 9.56017H116.389C116.37 9.48794 116.358 9.38744 116.351 9.25554C116.345 9.12364 116.333 9.03256 116.314 8.98545C116.285 8.91008 116.232 8.85355 116.15 8.82528C116.106 8.80644 116.041 8.79388 115.953 8.79074L115.827 8.78132H115.704V9.56017H115.127H115.13ZM116.185 7.77948C116.106 7.74808 115.993 7.73237 115.849 7.73237H115.708V8.38247H115.934C116.069 8.38247 116.176 8.3542 116.251 8.30081C116.326 8.24742 116.364 8.15635 116.364 8.03387C116.364 7.91138 116.304 7.82659 116.185 7.77948Z" fill="#999695"/>
<path d="M6.22771 23.306V31.6473H0V8.70557H17.7598V14.2455H6.22771V17.7692H16.9433V23.306H6.22771Z" fill="#999695"/>
<path d="M20.3818 31.6471V8.7085H26.6095V25.9124H35.0356V31.6471H20.3818Z" fill="#999695"/>
<path d="M59.6136 20.1752C59.6136 27.0405 54.5825 32.0716 47.488 32.0716C40.3935 32.0716 35.3623 27.0405 35.3623 20.1752C35.3623 13.31 40.3935 8.27881 47.488 8.27881C54.5825 8.27881 59.6136 13.31 59.6136 20.1752ZM41.835 20.1752C41.835 23.6644 44.1464 26.1077 47.488 26.1077C50.8295 26.1077 53.141 23.6675 53.141 20.1752C53.141 16.6829 50.8295 14.2427 47.488 14.2427C44.1464 14.2427 41.835 16.6861 41.835 20.1752Z" fill="#999695"/>
<path d="M81.1922 16.3432C81.1922 19.8826 79.1445 22.439 75.2596 23.2241L81.5031 31.6471H74.1636L68.6425 23.5036H68.297V31.6471H62.0693V8.7085H72.295C78.127 8.7085 81.1922 11.7077 81.1922 16.3432ZM68.297 18.3751H72.229C73.7522 18.3751 74.9016 17.7344 74.9016 16.3432C74.9016 14.9519 73.7553 14.2955 72.229 14.2955H68.297V18.3751Z" fill="#999695"/>
<path d="M90.1906 8.7085H83.9629V31.6471H90.1906V8.7085Z" fill="#999695"/>
<path d="M90.7307 2.65691C90.6679 2.45591 90.5674 2.2769 90.4418 2.12301C90.0492 1.62995 89.3959 1.38498 88.7521 1.52631C88.705 1.06151 88.4758 0.653235 88.1334 0.380007C87.8445 0.144465 87.4771 0 87.0719 0C86.1957 0 85.4797 0.668937 85.3949 1.52631C84.7731 1.38498 84.1418 1.6111 83.7461 2.0759C83.6016 2.24235 83.4886 2.43707 83.4195 2.65691C83.2782 3.0903 83.3253 3.5394 83.5074 3.91941C83.6801 4.27429 83.9722 4.5695 84.3554 4.73595C83.922 5.47712 84.1073 6.44127 84.817 6.95632C85.5299 7.47451 86.5066 7.35203 87.0751 6.70508C87.4582 7.13533 88.0141 7.33633 88.5543 7.26723C88.8275 7.23269 89.0976 7.12905 89.3363 6.95946C90.046 6.44441 90.2282 5.48026 89.7948 4.73909C90.0303 4.63859 90.2345 4.48471 90.3978 4.29941C90.7778 3.86602 90.9223 3.24733 90.7338 2.66319M87.0751 5.38604C86.224 5.38604 85.5331 4.69512 85.5331 3.84403C85.5331 2.99294 86.224 2.30202 87.0751 2.30202C87.9262 2.30202 88.6171 2.99294 88.6171 3.84403C88.6171 4.69512 87.9262 5.38604 87.0751 5.38604Z" fill="#D51130"/>
<path d="M0.489959 42.5735V45.8523H0.0722656V37.9224H2.95529C4.67003 37.9224 5.75352 38.7609 5.75352 40.2432C5.75352 41.7256 4.67317 42.5704 2.95529 42.5704H0.489959V42.5735ZM0.489959 38.3244V42.1715H2.94901C4.40623 42.1715 5.31699 41.5089 5.31699 40.2464C5.31699 38.9839 4.40623 38.3275 2.94901 38.3275H0.489959V38.3244Z" fill="#999695"/>
<path d="M21.1867 37.9224C22.9077 37.9224 23.8938 38.7106 23.8938 40.0862C23.8938 41.4618 22.8732 42.2563 21.193 42.2563H20.6591L23.8467 45.8523H23.3191L20.1597 42.2563H18.6931V45.8523H18.2754V37.9224H21.1867ZM18.6962 38.3181V41.87H21.1992C22.6439 41.87 23.4604 41.2231 23.4604 40.0862C23.4604 38.9493 22.6376 38.3181 21.1992 38.3181H18.6962Z" fill="#999695"/>
<path d="M41.7343 45.8523H36.4268V37.9224H41.7123V38.3181H36.8476V41.6596H41.5898V42.0553H36.8476V45.4534H41.7343V45.8491V45.8523Z" fill="#999695"/>
<path d="M62.5968 45.8525H62.1728V38.4376L58.825 44.8318H58.3822L55.028 38.4533V45.8493H54.6104V37.9194H55.229L58.6051 44.3356L61.9812 37.9194H62.5999V45.8493L62.5968 45.8525Z" fill="#999695"/>
<path d="M76.1276 45.8523H75.71V37.9224H76.1276V45.8523Z" fill="#999695"/>
<path d="M95.3847 42.7808C95.3847 44.8598 93.9809 45.9119 92.2536 45.9119C90.5263 45.9119 89.1162 44.8598 89.1162 42.7808V37.9224H89.5402V42.7525C89.5402 44.5992 90.7305 45.5037 92.2536 45.5037C93.7768 45.5037 94.9608 44.596 94.9608 42.7525V37.9224H95.3847V42.7808Z" fill="#999695"/>
<path d="M116.36 45.8525H115.936V38.4376L112.589 44.8318H112.146L108.792 38.4533V45.8493H108.374V37.9194H108.993L112.369 44.3356L115.745 37.9194H116.364V45.8493L116.36 45.8525Z" fill="#999695"/>
</svg>
