<svg xmlns="http://www.w3.org/2000/svg" xmlns:xlink="http://www.w3.org/1999/xlink" xmlns:inkscape="http://www.inkscape.org/namespaces/inkscape" version="1.1" width="595.276" height="419.528" viewBox="0 0 595.276 419.528">
<defs>
<clipPath id="clip_0">
<path transform="matrix(1,0,0,-1,0,419.528)" d="M0 419.528H595.276V0H0Z"/>
</clipPath>
</defs>
<g clip-path="url(#clip_0)">
<path transform="matrix(1,0,0,-1,455.795,202.35752)" d="M0 0H-25.622V3.502C-25.622 12.677-23.854 23.364-13.06 23.567-2.578 23.667 0 13.382 0 3.502ZM-12.859 41.31C-35.444 41.31-49.412 26.489-49.412 3.703L-49.514-32.273H-25.644L-25.622-15.121H0L.097-32.273H23.79V3.502C23.79 22.656 13.049 41.31-12.859 41.31" fill="#999796"/>
<path transform="matrix(1,0,0,-1,480.0796,158.72132)" d="M0 0C-.253 .099-.611 .146-1.072 .146H-1.522V-1.921H-.804C-.374-1.921-.036-1.833 .205-1.659 .446-1.485 .567-1.201 .567-.811 .567-.425 .378-.153 0 0M-3.359-5.664V1.363C-2.923 1.363-2.268 1.363-1.397 1.359-.527 1.355-.043 1.352 .057 1.348 .612 1.306 1.074 1.187 1.441 .984 2.069 .64 2.382 .081 2.382-.695 2.382-1.289 2.217-1.717 1.886-1.982 1.552-2.25 1.147-2.407 .662-2.46 1.107-2.552 1.441-2.683 1.667-2.858 2.081-3.191 2.289-3.712 2.289-4.427V-5.056C2.289-5.124 2.296-5.19 2.306-5.258 2.315-5.326 2.332-5.396 2.358-5.464L2.427-5.664H.655C.595-5.438 .555-5.116 .532-4.692 .509-4.271 .47-3.984 .412-3.834 .321-3.589 .149-3.417-.103-3.322-.24-3.264-.449-3.225-.732-3.209L-1.136-3.183H-1.522V-5.664ZM-4.281 1.545C-5.29 .512-5.794-.718-5.794-2.135-5.794-3.608-5.28-4.861-4.255-5.886-3.234-6.918-2.004-7.432-.56-7.432 .877-7.432 2.107-6.915 3.126-5.879 4.145-4.839 4.655-3.589 4.655-2.135 4.655-.722 4.148 .506 3.134 1.545 2.11 2.603 .877 3.132-.56 3.132-2.017 3.132-3.256 2.603-4.281 1.545M3.876-6.698C2.642-7.89 1.159-8.488-.569-8.488-2.354-8.488-3.859-7.876-5.084-6.654-6.306-5.43-6.919-3.927-6.919-2.139-6.919-.283-6.258 1.259-4.936 2.488-3.697 3.636-2.24 4.21-.569 4.21 1.181 4.21 2.679 3.591 3.919 2.35 5.16 1.11 5.78-.387 5.78-2.139 5.78-3.942 5.148-5.46 3.876-6.698" fill="#999796"/>
<path transform="matrix(1,0,0,-1,480.0796,158.72132)" d="M0 0C-.253 .099-.611 .146-1.072 .146H-1.522V-1.921H-.804C-.374-1.921-.036-1.833 .205-1.659 .446-1.485 .567-1.201 .567-.811 .567-.425 .378-.153 0 0M-3.359-5.664V1.363C-2.923 1.363-2.268 1.363-1.397 1.359-.527 1.355-.043 1.352 .057 1.348 .612 1.306 1.074 1.187 1.441 .984 2.069 .64 2.382 .081 2.382-.695 2.382-1.289 2.217-1.717 1.886-1.982 1.552-2.25 1.147-2.407 .662-2.46 1.107-2.552 1.441-2.683 1.667-2.858 2.081-3.191 2.289-3.712 2.289-4.427V-5.056C2.289-5.124 2.296-5.19 2.306-5.258 2.315-5.326 2.332-5.396 2.358-5.464L2.427-5.664H.655C.595-5.438 .555-5.116 .532-4.692 .509-4.271 .47-3.984 .412-3.834 .321-3.589 .149-3.417-.103-3.322-.24-3.264-.449-3.225-.732-3.209L-1.136-3.183H-1.522V-5.664ZM-4.281 1.545C-5.29 .512-5.794-.718-5.794-2.135-5.794-3.608-5.28-4.861-4.255-5.886-3.234-6.918-2.004-7.432-.56-7.432 .877-7.432 2.107-6.915 3.126-5.879 4.145-4.839 4.655-3.589 4.655-2.135 4.655-.722 4.148 .506 3.134 1.545 2.11 2.603 .877 3.132-.56 3.132-2.017 3.132-3.256 2.603-4.281 1.545M3.876-6.698C2.642-7.89 1.159-8.488-.569-8.488-2.354-8.488-3.859-7.876-5.084-6.654-6.306-5.43-6.919-3.927-6.919-2.139-6.919-.283-6.258 1.259-4.936 2.488-3.697 3.636-2.24 4.21-.569 4.21 1.181 4.21 2.679 3.591 3.919 2.35 5.16 1.11 5.78-.387 5.78-2.139 5.78-3.942 5.148-5.46 3.876-6.698" fill="#999796"/>
<path transform="matrix(1,0,0,-1,129.9599,208.16082)" d="M0 0V-26.557H-19.826V46.486H36.728V28.852H0V17.635H34.122V0Z" fill="#999796"/>
<path transform="matrix(1,0,0,-1,175.0375,234.71822)" d="M0 0V73.043H19.825V18.262H46.657V0Z" fill="#999796"/>
<path transform="matrix(1,0,0,-1,243.3472,198.19472)" d="M0 0C0-11.114 7.356-18.888 17.997-18.888 28.641-18.888 35.999-11.114 35.999 0 35.999 11.11 28.641 18.886 17.997 18.886 7.356 18.886 0 11.11 0 0M56.605 0C56.605-21.862 40.588-37.879 17.997-37.879-4.593-37.879-20.61-21.862-20.61 0-20.61 21.858-4.593 37.876 17.997 37.876 40.588 37.876 56.605 21.858 56.605 0" fill="#999796"/>
<path transform="matrix(1,0,0,-1,327.6041,192.45822)" d="M0 0H12.523C17.374 0 21.028 2.036 21.028 6.471 21.028 10.903 17.374 12.992 12.523 12.992H0ZM41.06 6.471C41.06-4.799 34.538-12.937 22.174-15.443L42.052-42.26H18.68L1.098-16.33H0V-42.26H-19.825V30.783H12.732C31.306 30.783 41.06 21.235 41.06 6.471" fill="#999796"/>
<path transform="matrix(1,0,0,-1,0,419.528)" d="M377.481 257.853H397.30799V184.81H377.481Z" fill="#999796"/>
<path transform="matrix(1,0,0,-1,387.397,151.10092)" d="M0 0C-2.713 0-4.912 2.199-4.912 4.911-4.912 7.624-2.713 9.823 0 9.823 2.712 9.823 4.911 7.624 4.911 4.911 4.911 2.199 2.712 0 0 0M11.639 8.693C11.436 9.332 11.122 9.9 10.716 10.397 9.469 11.968 7.39 12.749 5.341 12.293 5.189 13.774 4.459 15.072 3.374 15.944 2.451 16.694 1.285 17.151-.003 17.151-2.792 17.151-5.074 15.021-5.347 12.293-7.325 12.739-9.333 12.019-10.601 10.539-11.057 10.011-11.422 9.393-11.645 8.693-12.091 7.314-11.949 5.884-11.361 4.677-10.813 3.551-9.881 2.608-8.664 2.081-10.043-.282-9.455-3.345-7.193-4.987-4.922-6.641-1.818-6.245-.003-4.186 1.214-5.555 2.989-6.194 4.712-5.971 5.585-5.86 6.437-5.535 7.197-4.987 9.459-3.345 10.037-.282 8.657 2.081 9.408 2.405 10.057 2.892 10.574 3.48 11.781 4.86 12.247 6.827 11.639 8.693" fill="#da1f3d"/>
</g>
<text fill="#999796" xml:space="preserve" transform="matrix(1 0 -0 1 0 419.528)" font-size="36.0705" font-family="Mark"><tspan y="-139.5801" x="106.4277 164.39299 222.214 280.10716 347.3065 390.41075 451.36988">PREMIUM</tspan></text>
</svg>
