
<svg width="118" height="33" viewBox="0 0 118 33" fill="none" xmlns="http://www.w3.org/2000/svg">
<path d="M104.518 8.95898C97.4266 8.95898 93.0392 13.6133 93.0392 20.7706L93.0078 32.0703H100.504L100.511 26.6842H108.557L108.588 32.0703H116.028V20.8334C116.028 14.8193 112.655 8.95898 104.518 8.95898ZM108.557 21.9326H100.511V20.8334C100.511 17.9535 101.066 14.5963 104.455 14.5335C107.746 14.5021 108.557 17.7305 108.557 20.8334V21.9326Z" fill="#999695"/>
<path d="M117.4 10.3309C117.014 10.7046 116.546 10.8931 116.006 10.8931C115.466 10.8931 114.973 10.7015 114.586 10.3184C114.203 9.9352 114.012 9.46098 114.012 8.90196C114.012 8.34295 114.219 7.83418 114.634 7.44789C115.023 7.08673 115.481 6.90771 116.006 6.90771C116.53 6.90771 117.027 7.10243 117.416 7.49186C117.806 7.88129 118 8.35237 118 8.90196C118 9.45156 117.802 9.94463 117.404 10.3341M114.838 7.7431C114.52 8.06658 114.363 8.45287 114.363 8.89882C114.363 9.34478 114.524 9.75619 114.847 10.0765C115.167 10.4 115.554 10.5633 116.006 10.5633C116.458 10.5633 116.844 10.4 117.165 10.0765C117.485 9.74991 117.645 9.35734 117.645 8.90196C117.645 8.44658 117.485 8.07286 117.168 7.74624C116.848 7.41334 116.458 7.24689 116.009 7.24689C115.56 7.24689 115.161 7.41334 114.841 7.74624M115.13 10.0074V7.79963C115.268 7.79963 115.472 7.79963 115.745 7.79963C116.019 7.79963 116.169 7.79963 116.201 7.80277C116.377 7.81533 116.521 7.85302 116.634 7.91583C116.832 8.02261 116.929 8.19848 116.929 8.44344C116.929 8.62874 116.876 8.76378 116.772 8.84857C116.669 8.93337 116.54 8.98048 116.389 8.99932C116.53 9.02759 116.634 9.06841 116.706 9.12494C116.835 9.22858 116.901 9.39189 116.901 9.61801V9.81586C116.901 9.83785 116.901 9.85669 116.907 9.87867C116.907 9.90066 116.917 9.92264 116.923 9.94463L116.945 10.0074H116.389C116.37 9.9352 116.358 9.83471 116.351 9.7028C116.345 9.5709 116.333 9.47983 116.314 9.43272C116.285 9.35734 116.232 9.30081 116.15 9.27255C116.106 9.25371 116.041 9.24114 115.953 9.238L115.827 9.22858H115.704V10.0074H115.127H115.13ZM116.185 8.22675C116.106 8.19534 115.993 8.17964 115.849 8.17964H115.708V8.82973H115.934C116.069 8.82973 116.176 8.80147 116.251 8.74808C116.326 8.69469 116.364 8.60361 116.364 8.48113C116.364 8.35865 116.304 8.27385 116.185 8.22675Z" fill="#999695"/>
<path d="M117.4 10.3309C117.014 10.7046 116.546 10.8931 116.006 10.8931C115.466 10.8931 114.973 10.7015 114.586 10.3184C114.203 9.9352 114.012 9.46098 114.012 8.90196C114.012 8.34295 114.219 7.83418 114.634 7.44789C115.023 7.08673 115.481 6.90771 116.006 6.90771C116.53 6.90771 117.027 7.10243 117.416 7.49186C117.806 7.88129 118 8.35237 118 8.90196C118 9.45156 117.802 9.94463 117.404 10.3341M114.838 7.7431C114.52 8.06658 114.363 8.45287 114.363 8.89882C114.363 9.34478 114.524 9.75619 114.847 10.0765C115.167 10.4 115.554 10.5633 116.006 10.5633C116.458 10.5633 116.844 10.4 117.165 10.0765C117.485 9.74991 117.645 9.35734 117.645 8.90196C117.645 8.44658 117.485 8.07286 117.168 7.74624C116.848 7.41334 116.458 7.24689 116.009 7.24689C115.56 7.24689 115.161 7.41334 114.841 7.74624M115.13 10.0074V7.79963C115.268 7.79963 115.472 7.79963 115.745 7.79963C116.019 7.79963 116.169 7.79963 116.201 7.80277C116.377 7.81533 116.521 7.85302 116.634 7.91583C116.832 8.02261 116.929 8.19848 116.929 8.44344C116.929 8.62874 116.876 8.76378 116.772 8.84857C116.669 8.93337 116.54 8.98048 116.389 8.99932C116.53 9.02759 116.634 9.06841 116.706 9.12494C116.835 9.22858 116.901 9.39189 116.901 9.61801V9.81586C116.901 9.83785 116.901 9.85669 116.907 9.87867C116.907 9.90066 116.917 9.92264 116.923 9.94463L116.945 10.0074H116.389C116.37 9.9352 116.358 9.83471 116.351 9.7028C116.345 9.5709 116.333 9.47983 116.314 9.43272C116.285 9.35734 116.232 9.30081 116.15 9.27255C116.106 9.25371 116.041 9.24114 115.953 9.238L115.827 9.22858H115.704V10.0074H115.127H115.13ZM116.185 8.22675C116.106 8.19534 115.993 8.17964 115.849 8.17964H115.708V8.82973H115.934C116.069 8.82973 116.176 8.80147 116.251 8.74808C116.326 8.69469 116.364 8.60361 116.364 8.48113C116.364 8.35865 116.304 8.27385 116.185 8.22675Z" fill="#999695"/>
<path d="M6.22771 23.7539V32.0952H0V9.1535H17.7598V14.6934H6.22771V18.2171H16.9433V23.7539H6.22771Z" fill="#999695"/>
<path d="M20.3818 32.0952V9.15662H26.6095V26.3605H35.0356V32.0952H20.3818Z" fill="#999695"/>
<path d="M59.6136 20.6231C59.6136 27.4883 54.5825 32.5195 47.488 32.5195C40.3935 32.5195 35.3623 27.4883 35.3623 20.6231C35.3623 13.7578 40.3935 8.72668 47.488 8.72668C54.5825 8.72668 59.6136 13.7578 59.6136 20.6231ZM41.835 20.6231C41.835 24.1122 44.1464 26.5556 47.488 26.5556C50.8295 26.5556 53.141 24.1154 53.141 20.6231C53.141 17.1308 50.8295 14.6906 47.488 14.6906C44.1464 14.6906 41.835 17.1339 41.835 20.6231Z" fill="#999695"/>
<path d="M81.1921 16.7913C81.1921 20.3307 79.1445 22.8871 75.2596 23.6722L81.5031 32.0952H74.1636L68.6425 23.9517H68.297V32.0952H62.0693V9.15662H72.295C78.127 9.15662 81.1921 12.1558 81.1921 16.7913ZM68.297 18.8232H72.229C73.7522 18.8232 74.9016 18.1826 74.9016 16.7913C74.9016 15.4 73.7553 14.7437 72.229 14.7437H68.297V18.8232Z" fill="#999695"/>
<path d="M90.1906 9.15662H83.9629V32.0952H90.1906V9.15662Z" fill="#999695"/>
<path d="M90.7307 3.10466C90.6679 2.90366 90.5674 2.72465 90.4418 2.57077C90.0492 2.0777 89.3959 1.83274 88.7521 1.97406C88.705 1.50926 88.4758 1.10099 88.1334 0.82776C87.8445 0.592219 87.4771 0.447754 87.0719 0.447754C86.1957 0.447754 85.4797 1.11669 85.3949 1.97406C84.7731 1.83274 84.1418 2.05886 83.7461 2.52366C83.6016 2.69011 83.4886 2.88482 83.4195 3.10466C83.2782 3.53805 83.3253 3.98715 83.5074 4.36716C83.6801 4.72204 83.9722 5.01725 84.3554 5.1837C83.922 5.92487 84.1073 6.88902 84.817 7.40407C85.5299 7.92226 86.5066 7.79978 87.0751 7.15283C87.4582 7.58308 88.0141 7.78408 88.5543 7.71498C88.8275 7.68044 89.0976 7.5768 89.3363 7.40721C90.046 6.89216 90.2282 5.92801 89.7948 5.18684C90.0303 5.08635 90.2345 4.93246 90.3978 4.74717C90.7778 4.31377 90.9223 3.69508 90.7338 3.11094M87.0751 5.8338C86.224 5.8338 85.5331 5.14288 85.5331 4.29179C85.5331 3.4407 86.224 2.74978 87.0751 2.74978C87.9262 2.74978 88.6171 3.4407 88.6171 4.29179C88.6171 5.14288 87.9262 5.8338 87.0751 5.8338Z" fill="#D51130"/>
</svg>
