<svg width="49" height="47" viewBox="0 0 49 47" fill="none" xmlns="http://www.w3.org/2000/svg">
<path d="M47.9982 17.0496C47.5951 15.7598 46.9501 14.611 46.1439 13.6235C43.6245 10.4595 39.4322 8.88754 35.3004 9.79443C34.9981 6.81176 33.5267 4.19185 31.3298 2.43853C29.4755 0.927045 27.1173 0 24.5173 0C18.894 0 14.2986 4.29262 13.7544 9.79443C9.76367 8.88754 5.71247 10.3386 3.1729 13.3212C2.24576 14.3893 1.52016 15.6388 1.07674 17.0496C0.169753 19.8307 0.472079 22.7126 1.64108 25.1511C2.74962 27.4284 4.62409 29.3228 7.08303 30.3909C4.3016 35.1471 5.49077 41.3341 10.0459 44.6392C14.6211 47.9645 20.8894 47.1785 24.5375 43.027C26.9964 45.7879 30.5639 47.0777 34.0306 46.6344C35.7841 46.4127 37.5174 45.7476 39.0492 44.6594C43.6043 41.3543 44.7734 35.1672 41.992 30.4111C43.5036 29.7662 44.8137 28.7787 45.8617 27.5897C48.3005 24.8085 49.2277 20.8384 48.0184 17.0899M24.5375 34.5626C19.0754 34.5626 14.6413 30.129 14.6413 24.6674C14.6413 19.2059 19.0754 14.7723 24.5375 14.7723C29.9996 14.7723 34.4337 19.2059 34.4337 24.6674C34.4337 30.129 29.9996 34.5626 24.5375 34.5626Z" fill="#999695"/>
</svg>
