<svg width="49" height="47" viewBox="0 0 49 47" fill="none" xmlns="http://www.w3.org/2000/svg">
<path d="M47.9978 17.0496C47.5947 15.7598 46.9497 14.611 46.1435 13.6235C43.6241 10.4595 39.4318 8.88754 35.3 9.79443C34.9977 6.81176 33.5263 4.19185 31.3294 2.43853C29.4751 0.927045 27.1169 0 24.5169 0C18.8936 0 14.2982 4.29262 13.754 9.79443C9.76326 8.88754 5.71206 10.3386 3.17249 13.3212C2.24535 14.3893 1.51974 15.6388 1.07633 17.0496C0.169341 19.8307 0.471667 22.7126 1.64067 25.1511C2.74921 27.4284 4.62368 29.3228 7.08262 30.3909C4.30119 35.1471 5.49035 41.3341 10.0454 44.6392C14.6207 47.9645 20.889 47.1785 24.5371 43.027C26.996 45.7879 30.5635 47.0777 34.0302 46.6344C35.7837 46.4127 37.517 45.7476 39.0488 44.6594C43.6039 41.3543 44.773 35.1672 41.9916 30.4111C43.5032 29.7662 44.8133 28.7787 45.8613 27.5897C48.3001 24.8085 49.2273 20.8384 48.018 17.0899M24.5371 34.5626C19.075 34.5626 14.6408 30.129 14.6408 24.6674C14.6408 19.2059 19.075 14.7723 24.5371 14.7723C29.9992 14.7723 34.4333 19.2059 34.4333 24.6674C34.4333 30.129 29.9992 34.5626 24.5371 34.5626Z" fill="url(#paint0_linear_512_403)"/>
<defs>
<linearGradient id="paint0_linear_512_403" x1="24.5465" y1="0" x2="24.5465" y2="46.72" gradientUnits="userSpaceOnUse">
<stop stop-color="#E8E8E8"/>
<stop offset="1" stop-color="#999695"/>
</linearGradient>
</defs>
</svg>
