<svg width="49" height="47" viewBox="0 0 49 47" fill="none" xmlns="http://www.w3.org/2000/svg">
<path d="M47.5041 17.1517C47.1009 15.8542 46.456 14.6986 45.6498 13.7052C43.1304 10.5222 38.9381 8.9408 34.8063 9.85313C34.5039 6.85259 33.0326 4.21698 30.8357 2.45315C28.9814 0.932601 26.6232 0 24.0232 0C18.3999 0 13.8045 4.31835 13.2603 9.85313C9.26953 8.9408 5.21833 10.4005 2.67876 13.4011C1.75162 14.4756 1.02601 15.7326 0.582599 17.1517C-0.324388 19.9495 -0.0220613 22.8487 1.14694 25.3019C2.25548 27.5928 4.12995 29.4986 6.58889 30.5731C3.80746 35.3577 4.99663 41.5818 9.55171 44.9067C14.127 48.2519 20.3953 47.4613 24.0434 43.2848C26.5023 46.0624 30.0698 47.3599 33.5365 46.9139C35.29 46.6908 37.0233 46.0218 38.5551 44.927C43.1102 41.6021 44.2792 35.378 41.4978 30.5934C43.0095 29.9446 44.3195 28.9512 45.3676 27.755C47.8064 24.9572 48.7335 20.9632 47.5242 17.1923M24.0434 34.7698C18.5813 34.7698 14.1471 30.3095 14.1471 24.8153C14.1471 19.3211 18.5813 14.8608 24.0434 14.8608C29.5054 14.8608 33.9396 19.3211 33.9396 24.8153C33.9396 30.3095 29.5054 34.7698 24.0434 34.7698Z" fill="#D51130"/>
</svg>
