<svg width="162" height="43" viewBox="0 0 162 43" fill="none" xmlns="http://www.w3.org/2000/svg">
<path d="M30.6318 0.495605L27.8268 30.2252H0.492188L3.35827 0.495605H30.6318Z" fill="#999695"/>
<path d="M30.1603 0.92749H3.75045L0.962891 29.7977H27.4381L30.1603 0.92749Z" fill="#1C1C1E"/>
<path d="M26.2215 2.67676H28.25L25.855 28.0483H21.4316C23.2725 25.7145 23.953 23.3806 24.0752 21.845C24.2584 19.8776 23.8309 18.5863 22.3564 15.825C20.943 13.1814 20.8819 12.0777 21.004 10.7253C21.3138 7.59315 23.3379 4.70526 26.2258 2.67676H26.2215ZM19.0933 2.67676H21.1829C18.788 5.01063 17.3746 7.77637 17.1303 10.6643C16.886 12.876 17.3746 14.5337 18.5437 16.6843C19.896 19.2058 20.3846 20.1873 20.2624 22.0283C20.0182 24.0568 18.6658 26.2074 16.7595 27.8651C14.1159 26.0853 9.14275 22.2769 9.81892 15.2099C10.434 8.45254 16.2665 4.3999 19.0933 2.67676ZM5.3344 2.67676H13.6273C9.32597 6.17974 6.38137 10.5988 5.94949 15.2099C5.51762 19.9387 7.54612 24.4843 11.4155 28.0483H2.93945L5.3344 2.67676Z" fill="#999695"/>
<path d="M57.508 29.6886H50.3493L50.2839 26.0417H45.5987L44.6216 29.6886H37.4629L46.637 1.62983L46.7678 1.36809C46.8333 1.17178 46.9641 1.10635 47.1605 1.04091H54.7772C55.1043 1.04091 55.3617 1.30265 55.3617 1.62547L57.508 29.6799V29.6886ZM50.0876 19.9213V16.5361C50.0222 16.3398 50.0222 15.7552 50.0222 14.9089V12.8237C50.0222 12.4354 50.0222 11.6546 50.0876 10.612L50.153 8.78849V7.87675C49.9567 8.85393 49.7604 9.63479 49.6339 10.1539C49.2413 12.0428 49.3067 11.5848 48.9839 13.0811C48.7876 13.9274 48.8531 13.5391 48.7222 14.2545L48.5259 14.8391L48.4604 15.3626L47.2259 19.9169H50.0876V19.9213ZM69.8753 13.1552L69.1599 19.1404H71.7643C71.4414 21.8102 70.3334 23.3065 68.8982 23.3065C67.4629 23.3065 66.8173 22.1374 66.8173 19.4021C66.8173 17.2559 67.271 14.067 67.8599 11.5891C68.5099 8.78849 69.4871 7.42307 70.8525 7.42307C71.9562 7.42307 72.5451 8.53111 72.5451 10.4157L79.5729 7.61501C78.2729 2.86875 75.6031 0.526152 71.4371 0.526152C67.7901 0.526152 64.6667 2.67244 62.5858 6.64656C60.8278 9.83546 59.8506 14.3898 59.8506 18.883C59.8506 22.4645 60.7623 25.7189 62.1932 27.4769C63.6241 29.1695 65.9012 30.2121 68.1173 30.2121C72.3488 30.2121 75.4723 27.8695 77.3612 23.4417C78.3384 20.9682 78.9883 18.0411 79.5118 13.1596H69.8797L69.8753 13.1552ZM98.7106 29.6886H91.2248L89.6631 22.6565C89.2094 20.5756 89.3359 21.4219 89.0785 19.9867C88.8822 19.1404 88.8822 18.9441 88.6248 17.775L88.5594 18.3595C88.3631 20.5102 88.4285 19.9213 88.4285 20.3139C88.3631 20.9639 88.2976 21.2911 88.2976 21.5528L87.3859 29.6886H80.489L83.6125 1.6342C83.6125 1.30702 83.8742 1.11507 84.1316 1.04964H90.7057C94.0255 1.04964 96.2372 1.76507 97.6724 3.26136C98.9724 4.69222 99.6878 6.77744 99.6878 9.18547C99.6878 13.3515 98.0606 16.2831 94.8718 17.775L98.7106 29.6886ZM89.8594 7.49287L89.0785 14.2633C89.2748 14.3287 89.4711 14.3287 89.5366 14.3287C91.2946 14.3287 92.7909 12.4398 92.7909 10.2281C92.7909 8.4046 91.8792 7.49723 90.1211 7.49723H89.8637L89.8594 7.49287ZM112.967 0.526152C109.843 0.526152 106.781 2.34962 104.569 5.66939C102.554 8.72742 101.315 13.3515 101.315 18.3595C101.315 22.1374 102.292 25.6491 103.919 27.4725C105.35 29.1651 107.562 30.2078 109.713 30.2078C116.156 30.2078 121.103 22.3337 121.103 12.0472C121.103 5.0194 117.979 0.526152 112.967 0.526152ZM112.121 7.75025C113.421 7.81568 113.944 9.18111 113.944 12.1781C113.944 14.5207 113.617 17.3867 113.032 19.3367C112.382 21.7447 111.405 22.9182 110.232 22.9182C109.058 22.9182 108.474 21.3565 108.474 18.2985C108.474 16.1478 108.735 13.6133 109.32 11.7244C110.035 9.0546 111.013 7.68917 112.116 7.75461L112.121 7.75025ZM144.795 20.8984C143.233 22.2639 142.256 22.7219 140.886 22.7219C138.609 22.7219 137.244 20.7065 137.244 17.2559C137.244 11.7244 139.521 7.68481 142.71 7.68481C144.01 7.68481 144.66 8.07742 145.768 9.44285L146.614 1.24158C145.445 0.722459 144.66 0.526152 143.229 0.526152C139.516 0.526152 136.135 2.41506 133.597 5.92677C131.385 8.9848 130.146 13.6089 130.146 18.4904C130.146 25.5836 133.723 30.2078 139.193 30.2078C140.69 30.2078 141.667 29.946 143.425 29.1651L144.79 20.8984H144.795ZM145.837 28.9688L146.876 19.9867C147.984 22.0719 149.349 23.1102 150.911 23.1102C152.145 23.1102 153.123 22.1984 153.123 20.9595C153.123 20.375 152.926 19.9169 152.473 19.2669C152.342 19.2015 152.276 19.136 152.145 19.0052L151.495 18.3552L151.173 18.0324C148.765 15.7508 147.787 13.7354 147.787 11.0657C147.787 8.19957 149.153 4.9496 151.303 2.86439C152.8 1.30265 154.689 0.52179 156.704 0.52179C158.397 0.52179 159.958 1.04091 161.52 2.01808L160.543 10.7385C159.631 8.85393 158.2 7.61501 156.831 7.61501C155.723 7.61501 154.815 8.52675 154.815 9.56936C154.815 10.0885 155.073 10.6774 155.596 11.262C155.858 11.5237 155.596 11.3274 156.311 11.912L156.639 12.2348L156.961 12.4965C159.239 14.5817 160.216 16.4663 160.216 19.136C160.216 25.2565 156.05 30.2034 150.911 30.2034C149.153 30.2034 147.591 29.8108 145.833 28.9645L145.837 28.9688Z" fill="#999695"/>
<path d="M122.704 36.6248H116.968V42.0429H122.704V36.6248Z" fill="#999695"/>
<path d="M131.843 36.6248H126.103V42.0429H131.843V36.6248Z" fill="#999695"/>
<path d="M140.974 36.6248H135.237V42.0429H140.974V36.6248Z" fill="#999695"/>
<path d="M150.109 36.6248H144.372V42.0429H150.109V36.6248Z" fill="#999695"/>
<path d="M158.443 35.9838L152.901 37.4666L154.302 42.7006L159.843 41.2178L158.443 35.9838Z" fill="#999695"/>
<path d="M0.626953 36.7644H1.13299V41.6285H4.0994V42.0603H0.626953V36.7644Z" fill="#999695"/>
<path d="M4.71482 40.2717C4.71482 40.9523 5.08562 41.7768 5.97555 41.7768C6.65608 41.7768 7.02688 41.3842 7.1752 40.7996H7.64197C7.44131 41.6677 6.94399 42.1694 5.97555 42.1694C4.75844 42.1694 4.24805 41.2358 4.24805 40.1452C4.24805 39.1375 4.75844 38.1211 5.97555 38.1211C7.19265 38.1211 7.69432 39.1942 7.65942 40.2717H4.71482ZM7.19265 39.8791C7.17084 39.1724 6.72588 38.5137 5.97555 38.5137C5.22522 38.5137 4.79771 39.1812 4.71482 39.8791H7.19265Z" fill="#999695"/>
<path d="M8.95114 38.2345H9.72765V38.6271H8.95114V41.2096C8.95114 41.515 8.99477 41.6939 9.33067 41.7157C9.4659 41.7157 9.59678 41.7069 9.73201 41.6939V42.0952C9.59241 42.0952 9.45718 42.1083 9.31758 42.1083C8.69376 42.1083 8.48001 41.8989 8.48873 41.2489V38.6315H7.82129V38.2389H8.48873V37.0916H8.95551V38.2389L8.95114 38.2345Z" fill="#999695"/>
<path d="M10.6787 36.7644H11.1455V38.5661H10.6787V36.7644Z" fill="#999695"/>
<path d="M14.5914 39.3556C14.5696 38.7754 14.1247 38.518 13.5925 38.518C13.178 38.518 12.6894 38.6794 12.6894 39.1768C12.6894 39.5825 13.1562 39.7395 13.4834 39.8224L14.1072 39.962C14.6394 40.0449 15.1978 40.3546 15.1978 41.022C15.1978 41.8509 14.3733 42.1693 13.6623 42.1693C12.7636 42.1693 12.1703 41.7636 12.0918 40.8214H12.5586C12.5935 41.4539 13.0646 41.7767 13.6841 41.7767C14.129 41.7767 14.731 41.5848 14.731 41.0482C14.731 40.6033 14.3166 40.4549 13.8935 40.3502L13.2914 40.215C12.6851 40.058 12.2227 39.8355 12.2227 39.1898C12.2227 38.4133 12.9861 38.1167 13.6623 38.1167C14.4344 38.1167 15.0277 38.518 15.0626 39.3469H14.5958L14.5914 39.3556Z" fill="#999695"/>
<path d="M17.8408 36.7644H18.5824L20.4146 41.406L22.2381 36.7644H22.9797V42.0603H22.4737V37.4842H22.4606L20.6502 42.0603H20.1747L18.3599 37.4842H18.3469V42.0603H17.8408V36.7644Z" fill="#999695"/>
<path d="M23.8171 39.408C23.8695 38.5094 24.4846 38.1255 25.3658 38.1255C26.0419 38.1255 26.7748 38.3262 26.7748 39.3557V41.3885C26.7748 41.5718 26.8621 41.6721 27.0497 41.6721C27.102 41.6721 27.1456 41.6634 27.198 41.6416V42.0342C27.0889 42.056 27.0191 42.0647 26.8926 42.0647C26.4171 42.0647 26.343 41.7899 26.343 41.3973H26.3299C25.9983 41.8946 25.6755 42.1781 24.9339 42.1781C24.1923 42.1781 23.6514 41.8291 23.6514 41.057C23.6514 39.9882 24.6983 39.9446 25.706 39.8268C26.0899 39.7919 26.3081 39.7221 26.3081 39.3077C26.3081 38.6751 25.8631 38.5225 25.3091 38.5225C24.7245 38.5225 24.3101 38.7886 24.2839 39.4124H23.8171V39.408ZM26.3081 39.9708H26.295C26.2339 40.0842 26.0289 40.1191 25.9024 40.1409C25.1084 40.2805 24.1225 40.2805 24.1225 41.0221C24.1225 41.4889 24.5326 41.7768 24.9775 41.7768C25.6973 41.7768 26.3124 41.3231 26.3124 40.5771V39.9708H26.3081Z" fill="#999695"/>
<path d="M27.6299 36.7644H28.0967V40.0885L30.2168 38.2345H30.8406L29.2091 39.6523L30.9497 42.0603H30.3651L28.8513 39.9751L28.0967 40.6033V42.0559H27.6299V36.76V36.7644Z" fill="#999695"/>
<path d="M31.5303 40.2717C31.5303 40.9523 31.9011 41.7768 32.791 41.7768C33.4715 41.7768 33.8423 41.3842 33.9906 40.7996H34.4574C34.2567 41.6677 33.7594 42.1694 32.791 42.1694C31.5739 42.1694 31.0635 41.2358 31.0635 40.1452C31.0635 39.1375 31.5739 38.1211 32.791 38.1211C34.0081 38.1211 34.5098 39.1942 34.4749 40.2717H31.5303ZM34.0081 39.8791C33.9863 39.1724 33.5413 38.5137 32.791 38.5137C32.0406 38.5137 31.6131 39.1812 31.5303 39.8791H34.0081Z" fill="#999695"/>
<path d="M37.747 38.2345H38.5235V38.6271H37.747V41.2096C37.747 41.515 37.7907 41.6939 38.1266 41.7157C38.2618 41.7157 38.3927 41.7069 38.5279 41.6939V42.0952C38.3883 42.0952 38.2531 42.1083 38.1135 42.1083C37.4897 42.1083 37.2759 41.8989 37.2846 41.2489V38.6315H36.6172V38.2389H37.2846V37.0916H37.7514V38.2389L37.747 38.2345Z" fill="#999695"/>
<path d="M39.1079 36.7644H39.5746V38.8932H39.5877C39.7666 38.4352 40.2683 38.1211 40.8092 38.1211C41.8823 38.1211 42.2095 38.6838 42.2095 39.5956V42.056H41.7428V39.6697C41.7428 39.0154 41.529 38.5137 40.7699 38.5137C40.0109 38.5137 39.5921 39.0765 39.5703 39.8268V42.0603H39.1035V36.7644H39.1079Z" fill="#999695"/>
<path d="M43.291 40.2717C43.291 40.9523 43.6618 41.7768 44.5517 41.7768C45.2322 41.7768 45.6031 41.3842 45.7514 40.7996H46.2181C46.0175 41.6677 45.5202 42.1694 44.5517 42.1694C43.3346 42.1694 42.8242 41.2358 42.8242 40.1452C42.8242 39.1375 43.3346 38.1211 44.5517 38.1211C45.7688 38.1211 46.2705 39.1942 46.2356 40.2717H43.291ZM45.7688 39.8791C45.747 39.1724 45.302 38.5137 44.5517 38.5137C43.8014 38.5137 43.3739 39.1812 43.291 39.8791H45.7688Z" fill="#999695"/>
<path d="M48.3212 36.7644H48.8622L50.0618 41.3972H50.0749L51.3662 36.7644H51.9943L53.29 41.3972H53.3031L54.5114 36.7644H55.0175L53.5561 42.0603H53.0239L51.6803 37.3228H51.6672L50.3323 42.0603H49.7826L48.3125 36.7644H48.3212Z" fill="#999695"/>
<path d="M58.7038 40.1496C58.7038 41.2489 58.0581 42.1738 56.8934 42.1738C55.7286 42.1738 55.083 41.2489 55.083 40.1496C55.083 39.0503 55.7286 38.1255 56.8934 38.1255C58.0581 38.1255 58.7038 39.0503 58.7038 40.1496ZM55.5498 40.1496C55.5498 40.9567 56.0035 41.7812 56.8934 41.7812C57.7833 41.7812 58.237 40.9567 58.237 40.1496C58.237 39.3426 57.7833 38.5181 56.8934 38.5181C56.0035 38.5181 55.5498 39.3426 55.5498 40.1496Z" fill="#999695"/>
<path d="M59.3184 38.2345H59.7502V39.1331H59.7633C59.9989 38.5093 60.518 38.156 61.2073 38.1821V38.6489C60.361 38.614 59.7851 39.2204 59.7851 40.0187V42.0559H59.3184V38.2301V38.2345Z" fill="#999695"/>
<path d="M61.5781 36.7644H62.0449V42.0603H61.5781V36.7644Z" fill="#999695"/>
<path d="M66.2284 42.0603H65.7965V41.3318H65.7834C65.5827 41.8378 64.9764 42.1694 64.418 42.1694C63.2532 42.1694 62.6992 41.2358 62.6992 40.1452C62.6992 39.0547 63.2532 38.1211 64.418 38.1211C64.9807 38.1211 65.5522 38.409 65.7442 38.9587H65.7572V36.7644H66.224V42.0603H66.2284ZM64.418 41.7811C65.4039 41.7811 65.7616 40.9436 65.7616 40.1496C65.7616 39.3557 65.4039 38.5181 64.418 38.5181C63.5281 38.5181 63.166 39.3557 63.166 40.1496C63.166 40.9436 63.5281 41.7811 64.418 41.7811Z" fill="#999695"/>
<path d="M69.0947 36.7644H69.8363L71.6685 41.406L73.492 36.7644H74.2336V42.0603H73.7276V37.4842H73.7145L71.9041 42.0603H71.4286L69.6139 37.4842H69.6008V42.0603H69.0947V36.7644Z" fill="#999695"/>
<path d="M78.5397 40.1496C78.5397 41.2489 77.8941 42.1738 76.7293 42.1738C75.5646 42.1738 74.9189 41.2489 74.9189 40.1496C74.9189 39.0503 75.5646 38.1255 76.7293 38.1255C77.8941 38.1255 78.5397 39.0503 78.5397 40.1496ZM75.3901 40.1496C75.3901 40.9567 75.8438 41.7812 76.7337 41.7812C77.6236 41.7812 78.0773 40.9567 78.0773 40.1496C78.0773 39.3426 77.6236 38.5181 76.7337 38.5181C75.8438 38.5181 75.3901 39.3426 75.3901 40.1496Z" fill="#999695"/>
<path d="M79.1543 38.2345H79.5862V39.1331H79.5993C79.8348 38.5093 80.3539 38.156 81.0432 38.1821V38.6489C80.1969 38.614 79.6211 39.2204 79.6211 40.0187V42.0559H79.1543V38.2301V38.2345Z" fill="#999695"/>
<path d="M81.5537 40.2717C81.5537 40.9523 81.9245 41.7768 82.8144 41.7768C83.4949 41.7768 83.8658 41.3842 84.0141 40.7996H84.4808C84.2802 41.6677 83.7829 42.1694 82.8144 42.1694C81.5973 42.1694 81.0869 41.2358 81.0869 40.1452C81.0869 39.1375 81.5973 38.1211 82.8144 38.1211C84.0315 38.1211 84.5332 39.1942 84.4983 40.2717H81.5537ZM84.0272 39.8791C84.0053 39.1724 83.5604 38.5137 82.8101 38.5137C82.0597 38.5137 81.6322 39.1812 81.5493 39.8791H84.0272Z" fill="#999695"/>
<path d="M87.1113 36.7644H89.3492C90.2392 36.7644 91.0462 37.0741 91.0462 38.06C91.0462 38.614 90.6754 39.1288 90.1257 39.2466V39.2597C90.8063 39.3469 91.2469 39.8617 91.2469 40.5509C91.2469 41.057 91.068 42.0559 89.3492 42.0559H87.1113V36.76V36.7644ZM87.6174 39.0852H89.3536C90.1563 39.0852 90.5489 38.6838 90.5489 38.1865C90.5489 37.5278 90.1475 37.1919 89.3536 37.1919H87.6174V39.0808V39.0852ZM87.6174 41.6284H89.3536C90.1039 41.6284 90.7495 41.3972 90.7495 40.5378C90.7495 39.8573 90.2435 39.5127 89.3536 39.5127H87.6174V41.6241V41.6284Z" fill="#999695"/>
<path d="M92.1625 40.2717C92.1625 40.9523 92.5333 41.7768 93.4233 41.7768C94.1038 41.7768 94.4746 41.3842 94.6229 40.7996H95.0897C94.889 41.6677 94.3917 42.1694 93.4189 42.1694C92.2018 42.1694 91.6914 41.2358 91.6914 40.1452C91.6914 39.1375 92.2018 38.1211 93.4189 38.1211C94.636 38.1211 95.1377 39.1942 95.1028 40.2717H92.1582H92.1625ZM94.6404 39.8791C94.6186 39.1724 94.1736 38.5137 93.4233 38.5137C92.6729 38.5137 92.2454 39.1812 92.1625 39.8791H94.6404Z" fill="#999695"/>
<path d="M95.614 39.408C95.6664 38.5094 96.2815 38.1255 97.1627 38.1255C97.8388 38.1255 98.5717 38.3262 98.5717 39.3557V41.3885C98.5717 41.5718 98.659 41.6721 98.8465 41.6721C98.8989 41.6721 98.9425 41.6634 98.9949 41.6416V42.0342C98.8858 42.056 98.816 42.0647 98.6895 42.0647C98.214 42.0647 98.1398 41.7899 98.1398 41.3973H98.1267C97.7908 41.8946 97.4724 42.1781 96.7308 42.1781C95.9892 42.1781 95.4482 41.8291 95.4482 41.057C95.4482 39.9882 96.4952 39.9446 97.5029 39.8268C97.8868 39.7919 98.1049 39.7221 98.1049 39.3077C98.1049 38.6751 97.66 38.5225 97.1059 38.5225C96.5214 38.5225 96.107 38.7886 96.0808 39.4124H95.614V39.408ZM98.1049 39.9708H98.0918C98.0308 40.0842 97.8257 40.1191 97.6992 40.1409C96.9053 40.2805 95.9194 40.2805 95.9194 41.0221C95.9194 41.4889 96.3251 41.7768 96.77 41.7768C97.4898 41.7768 98.1049 41.3231 98.1049 40.5771V39.9708Z" fill="#999695"/>
<path d="M102.523 42.0603H102.092V41.371H102.078C101.834 41.8814 101.328 42.1737 100.757 42.1737C99.7839 42.1737 99.4131 41.6197 99.4131 40.721V38.2389H99.8799V40.7298C99.9017 41.419 100.163 41.7811 100.905 41.7811C101.703 41.7811 102.052 41.0264 102.052 40.2456V38.2345H102.519V42.0603H102.523Z" fill="#999695"/>
<path d="M104.068 38.2345H104.849V38.6271H104.068V41.2096C104.068 41.515 104.112 41.6939 104.448 41.7157C104.583 41.7157 104.714 41.7069 104.849 41.6939V42.0952C104.71 42.0952 104.574 42.1083 104.435 42.1083C103.811 42.1083 103.597 41.8989 103.606 41.2489V38.6315H102.938V38.2389H103.606V37.0916H104.073V38.2389L104.068 38.2345Z" fill="#999695"/>
<path d="M105.446 36.7644H105.913V37.5147H105.446V36.7644ZM105.446 38.2345H105.913V42.0603H105.446V38.2345Z" fill="#999695"/>
<path d="M108.204 38.6271H107.449V42.0603H106.982V38.6271H106.328V38.2345H106.982V37.8855C106.982 37.2268 107.153 36.7644 107.907 36.7644C108.047 36.7644 108.152 36.7731 108.3 36.7949V37.1963C108.173 37.1745 108.069 37.1614 107.96 37.1614C107.449 37.1614 107.449 37.4973 107.449 37.903V38.2345H108.204V38.6271Z" fill="#999695"/>
<path d="M111.667 42.0603H111.235V41.371H111.222C110.978 41.8814 110.472 42.1737 109.9 42.1737C108.927 42.1737 108.557 41.6197 108.557 40.721V38.2389H109.023V40.7298C109.045 41.419 109.307 41.7811 110.049 41.7811C110.851 41.7811 111.196 41.0264 111.196 40.2456V38.2345H111.663V42.0603H111.667Z" fill="#999695"/>
<path d="M112.475 36.7644H112.941V42.0603H112.475V36.7644Z" fill="#999695"/>
</svg>
