<svg width="53" height="25" viewBox="0 0 53 25" fill="none" xmlns="http://www.w3.org/2000/svg">
<path d="M35.921 14.9249C35.7124 12.9611 35.7993 11.2022 36.1644 9.68238C37.1902 5.39617 40.7194 2.80055 40.7194 2.80055C40.7194 2.80055 33.8348 4.2862 30.1143 8.41872C28.5496 3.39822 26.1504 0 26.1504 0C26.1504 0 23.7512 3.39822 22.1865 8.41872C18.466 4.2862 11.5814 2.80055 11.5814 2.80055C11.564 2.80055 12.3637 3.4153 13.3894 4.55943C16.1016 7.56489 16.7796 10.9973 16.3797 14.9419C15.4235 12.4317 13.8241 10.5191 11.6857 9.28962C7.09591 6.57445 0.106934 7.0526 0.106934 7.0526C0.106934 7.0526 4.2447 8.53825 6.48743 12.3634C8.5563 15.8299 8.83447 20.321 8.76493 25H43.5359C43.4837 20.3381 43.7619 15.8299 45.8307 12.3634C47.8648 8.87978 51.4811 7.3429 52.1069 7.08675C50.8378 7.1209 39.3633 5.92555 35.9384 14.9419" fill="#999695"/>
</svg>
