<svg width="52" height="25" viewBox="0 0 52 25" fill="none" xmlns="http://www.w3.org/2000/svg">
<path d="M35.8141 14.9249C35.6055 12.9611 35.6924 11.2022 36.0575 9.68238C37.0832 5.39617 40.6125 2.80055 40.6125 2.80055C40.6125 2.80055 33.7279 4.2862 30.0074 8.41872C28.4427 3.39822 26.0435 0 26.0435 0C26.0435 0 23.6443 3.39822 22.0796 8.41872C18.3591 4.2862 11.4744 2.80055 11.4744 2.80055C11.457 2.80055 12.2567 3.4153 13.2825 4.55943C15.9946 7.56489 16.6727 10.9973 16.2728 14.9419C15.3166 12.4317 13.7172 10.5191 11.5787 9.28962C6.98897 6.57445 0 7.0526 0 7.0526C0 7.0526 4.13777 8.53825 6.3805 12.3634C8.44937 15.8299 8.72753 20.321 8.65799 25H43.429C43.3768 20.3381 43.6549 15.8299 45.7238 12.3634C47.7579 8.87978 51.3741 7.3429 52 7.08675C50.7309 7.1209 39.2564 5.92555 35.8315 14.9419" fill="#007934"/>
</svg>
