<svg width="184" height="25" viewBox="0 0 184 25" fill="none" xmlns="http://www.w3.org/2000/svg">
<path d="M3.24836 19.105H0.000488281V6.53345C1.62442 5.90483 4.03371 5.38098 6.1553 5.38098C7.64785 5.38098 8.77412 5.66909 9.5599 6.27152C11.0005 5.74767 12.7816 5.38098 14.3007 5.38098C18.0458 5.38098 19.5388 6.87395 19.5388 11.6672V19.1046H16.2909V12.0072C16.2909 9.04792 15.7671 8.31453 13.6197 8.31453C12.9645 8.31453 11.891 8.4193 11.0267 8.68123C11.2624 9.467 11.3934 10.4619 11.3934 11.6672V19.1046H8.1455V12.0072C8.1455 9.04792 7.62208 8.31453 5.47387 8.31453C4.7671 8.31453 3.90274 8.4455 3.24793 8.62884V19.105M32.9498 18.7387C31.614 19.184 29.6495 19.4721 28.2879 19.4721C24.4376 19.4721 21.8184 17.8477 21.8184 12.3739C21.8184 7.03068 24.1495 5.38055 28.026 5.38055C32.2426 5.38055 34.076 6.82156 33.8403 13.2907H25.2234C25.2496 16.1457 26.3497 16.7219 28.6808 16.7219C29.6238 16.7219 31.3782 16.4857 32.4259 16.1714L32.9498 18.7387ZM25.2496 10.8024H30.8548C30.7496 8.44507 30.069 7.94742 28.2094 7.94742C26.1663 7.94742 25.4591 8.60223 25.2496 10.8024Z" fill="#A6CE39"/>
<path d="M41.0959 19.4194C37.429 19.4194 35.4907 17.9002 35.4907 12.4788C35.4907 7.03117 37.5075 5.38104 41.9079 5.38104C43.8195 5.38104 46.2816 5.77393 47.7222 6.37636V18.0831C47.7222 23.2958 44.8148 24.4479 40.5983 24.4479C39.0791 24.4479 37.0627 24.1074 35.9102 23.6621L36.5646 21.0433C37.7957 21.4358 39.3148 21.6985 40.5721 21.6985C43.0337 21.6985 44.4743 21.0171 44.4743 18.5554C43.7414 19.0003 42.6151 19.4194 41.0959 19.4194ZM44.4743 8.49795C43.7152 8.20983 42.7198 8.05268 41.9079 8.05268C39.6029 8.05268 38.8434 8.6551 38.8434 12.453C38.8434 15.779 39.5506 16.6172 41.8293 16.6172C43.2695 16.6172 44.4743 16.1719 44.4743 15.36V8.49795Z" fill="#A6CE39"/>
<path d="M61.7084 18.424C60.0326 19.0788 57.5443 19.4713 55.6846 19.4713C51.468 19.4713 50.0532 18.5017 50.0532 15.0185C50.0532 11.2472 52.1748 10.6448 55.2917 10.6448C56.418 10.6448 57.4657 10.7758 58.5915 11.0115C58.5915 8.68038 58.0419 8.10414 55.2655 8.10414C53.7987 8.10414 52.3324 8.36607 51.2323 8.75896L50.6299 6.08775C52.0177 5.72105 54.0345 5.38013 55.9465 5.38013C59.9016 5.38013 61.7084 6.58498 61.7084 10.5662V18.424ZM58.5915 13.2121C57.8586 13.0554 56.9156 12.9764 55.9465 12.9764C54.1131 12.9764 53.4582 13.1863 53.4582 14.8888C53.4582 16.6957 53.9559 16.9838 55.9203 16.9838C56.8288 16.9789 57.7306 16.8286 58.5915 16.5385V13.2121Z" fill="#A6CE39"/>
<path d="M75.0674 5.77389V6.4287C73.1815 9.4666 69.9603 14.0503 68.2054 16.2762H74.884V19.1046H63.124V18.4502C65.6647 15.2285 68.7816 10.7496 70.0912 8.60225H63.5697V5.77346L75.0674 5.77389ZM87.8231 18.424C86.1468 19.0788 83.6585 19.4713 81.7993 19.4713C77.5823 19.4713 76.1679 18.5017 76.1679 15.0186C76.1679 11.2473 78.2895 10.6448 81.4059 10.6448C82.5322 10.6448 83.5799 10.7758 84.7062 11.0115C84.7062 8.68041 84.1562 8.10417 81.3798 8.10417C79.9134 8.10417 78.4466 8.3661 77.3465 8.75898L76.7441 6.08777C78.1323 5.72108 80.1491 5.38015 82.0608 5.38015C86.0158 5.38015 87.8231 6.58501 87.8231 10.5663V18.424ZM84.7062 13.2121C83.9728 13.0554 83.0299 12.9764 82.0608 12.9764C80.2277 12.9764 79.5729 13.1864 79.5729 14.8889C79.5729 16.6957 80.0706 16.9838 82.0346 16.9838C82.9775 16.9838 83.9466 16.8005 84.7062 16.5386V13.2121ZM102.307 11.431V19.105H99.0592V11.693C99.0592 9.49279 98.483 8.31456 96.3876 8.31456C95.0522 8.31456 93.8212 8.70702 93.8212 9.49279V19.1046H90.5737V0.195312H93.8212V6.29774C94.6855 5.85246 96.1261 5.381 97.4881 5.381C100.605 5.381 102.307 6.45489 102.307 11.431ZM105.058 5.77389H108.306V6.7692C108.777 6.03581 109.799 5.381 111.711 5.381C112.156 5.381 112.601 5.40719 113.073 5.45958V8.55029C112.513 8.43187 111.943 8.37045 111.371 8.36694C109.747 8.36694 108.306 8.89037 108.306 9.85949V19.105H105.059V5.77389M125.33 18.424C123.654 19.0788 121.166 19.4713 119.306 19.4713C115.09 19.4713 113.675 18.5017 113.675 15.0186C113.675 11.2473 115.797 10.6448 118.913 10.6448C120.039 10.6448 121.087 10.7758 122.213 11.0115C122.213 8.68041 121.663 8.10417 118.887 8.10417C117.421 8.10417 115.954 8.3661 114.854 8.75898L114.251 6.08777C115.639 5.72108 117.656 5.38015 119.568 5.38015C123.523 5.38015 125.33 6.58501 125.33 10.5663V18.424ZM122.213 13.2121C121.48 13.0554 120.537 12.9764 119.568 12.9764C117.735 12.9764 117.08 13.1864 117.08 14.8889C117.08 16.6957 117.577 16.9838 119.542 16.9838C120.45 16.9788 121.352 16.8285 122.213 16.5386V13.2121H122.213ZM139.841 18.5026C138.4 19.0788 135.938 19.4721 134.026 19.4721C129.626 19.4721 127.609 17.9002 127.609 12.4264C127.609 7.03113 129.836 5.381 133.398 5.381C134.917 5.381 135.886 5.74769 136.593 6.14058V0.195312H139.841V18.5026ZM136.593 9.41464C136.593 8.62887 135.44 8.13121 133.974 8.13121C131.695 8.13121 130.962 9.04795 130.962 12.374C130.962 16.0151 131.721 16.6957 134.026 16.6957C134.916 16.6957 135.912 16.5386 136.593 16.3024V9.41464ZM153.827 18.424C152.151 19.0788 149.663 19.4713 147.803 19.4713C143.587 19.4713 142.172 18.5017 142.172 15.0186C142.172 11.2473 144.294 10.6448 147.41 10.6448C148.536 10.6448 149.584 10.7758 150.711 11.0115C150.711 8.68041 150.16 8.10417 147.384 8.10417C145.918 8.10417 144.451 8.3661 143.351 8.75898L142.748 6.08777C144.136 5.72108 146.154 5.38015 148.065 5.38015C152.02 5.38015 153.827 6.58501 153.827 10.5663V18.424ZM150.711 13.2121C149.977 13.0554 149.034 12.9764 148.065 12.9764C146.232 12.9764 145.577 13.1864 145.577 14.8889C145.577 16.6957 146.075 16.9838 148.039 16.9838C148.982 16.9838 149.95 16.8005 150.71 16.5386L150.711 13.2121ZM159.486 17.6906C159.486 18.8955 159.172 19.105 158.098 19.105C157.103 19.105 156.762 18.8955 156.762 17.6906C156.762 16.5643 157.103 16.4076 158.098 16.4076C159.171 16.4076 159.486 16.5643 159.486 17.6906ZM172.503 18.7387C171.508 19.184 169.858 19.4717 168.731 19.4717C164.619 19.4717 162.341 17.8478 162.341 12.4259C162.341 7.0307 164.645 5.51154 168.731 5.51154C169.831 5.51154 171.56 5.79966 172.503 6.16635L171.952 7.76409C171.01 7.31882 169.831 7.13547 168.731 7.13547C165.641 7.13547 164.226 7.97363 164.226 12.4787C164.226 16.7739 165.641 17.8478 168.731 17.8478C169.858 17.8478 171.01 17.5854 171.952 17.1663L172.503 18.7387ZM173.053 18.3978C176.196 14.6008 179.601 10.0956 181.303 7.45021H173.472V5.87866H183.974V6.53347C181.643 10.0956 177.767 15.3861 175.881 17.5339H184.001V19.105H173.053V18.3978Z" fill="#00652E"/>
</svg>
