<svg width="287" height="38" viewBox="0 0 287 38" fill="none" xmlns="http://www.w3.org/2000/svg">
<path d="M5.05513 29.6839H0V10.1169C2.52757 9.13851 6.27749 8.32317 9.57964 8.32317C11.9027 8.32317 13.6557 8.77161 14.8787 9.70925C17.1209 8.89391 19.8931 8.32317 22.2576 8.32317C28.0866 8.32317 30.4104 10.6469 30.4104 18.1073V29.6832H25.3552V18.6366C25.3552 14.0306 24.5399 12.8891 21.1976 12.8891C20.1778 12.8891 18.507 13.0522 17.1617 13.4598C17.5286 14.6829 17.7324 16.2313 17.7324 18.1073V29.6832H12.6773V18.6366C12.6773 14.0306 11.8626 12.8891 8.51903 12.8891C7.41898 12.8891 6.07366 13.0929 5.05448 13.3783V29.6839M51.2838 29.1138C49.2047 29.8068 46.1472 30.2553 44.0279 30.2553C38.0352 30.2553 33.9584 27.727 33.9584 19.2074C33.9584 10.8908 37.5867 8.32251 43.6203 8.32251C50.1831 8.32251 53.0368 10.5654 52.6699 20.6342H39.2582C39.2989 25.0778 41.0112 25.9747 44.6394 25.9747C46.1071 25.9747 48.8378 25.6072 50.4685 25.1179L51.2838 29.1138ZM39.2989 16.7613H48.0231C47.8594 13.0923 46.8001 12.3177 43.9056 12.3177C40.7258 12.3177 39.6251 13.3369 39.2989 16.7613Z" fill="white"/>
<path d="M63.963 30.1734C58.2555 30.1734 55.2388 27.8089 55.2388 19.3707C55.2388 10.8918 58.3778 8.32349 65.2267 8.32349C68.2021 8.32349 72.0342 8.93499 74.2764 9.87264V28.0936C74.2764 36.2069 69.7512 38 63.1884 38C60.8239 38 57.6855 37.4701 55.8917 36.777L56.9102 32.701C58.8263 33.3118 61.1908 33.7208 63.1476 33.7208C66.9791 33.7208 69.2213 32.6602 69.2213 28.8287C68.0804 29.5211 66.3275 30.1734 63.963 30.1734ZM69.2213 13.1748C68.0397 12.7263 66.4905 12.4817 65.2267 12.4817C61.6392 12.4817 60.457 13.4194 60.457 19.3306C60.457 24.5074 61.5577 25.812 65.1044 25.812C67.346 25.812 69.2213 25.1189 69.2213 23.8551V13.1748Z" fill="white"/>
<path d="M96.045 28.6238C93.4366 29.643 89.5637 30.2539 86.6692 30.2539C80.1064 30.2539 77.9043 28.7448 77.9043 23.3235C77.9043 17.4536 81.2064 16.516 86.0577 16.516C87.8107 16.516 89.4414 16.7198 91.1937 17.0867C91.1937 13.4584 90.3383 12.5616 86.017 12.5616C83.734 12.5616 81.4517 12.9692 79.7395 13.5807L78.8018 9.42315C80.9618 8.85241 84.1009 8.32178 87.0769 8.32178C93.2328 8.32178 96.045 10.1971 96.045 16.3937V28.6238ZM91.1937 20.5118C90.0529 20.2679 88.5853 20.1449 87.0769 20.1449C84.2232 20.1449 83.204 20.4717 83.204 23.1216C83.204 25.9339 83.9786 26.3823 87.0361 26.3823C88.4501 26.3746 89.8537 26.1407 91.1937 25.6893V20.5118Z" fill="white"/>
<path d="M116.837 8.93471V9.95389C113.902 14.6822 108.888 21.8165 106.157 25.281H116.552V29.6832H98.248V28.6647C102.202 23.6504 107.054 16.6792 109.092 13.3369H98.9418V8.93405L116.837 8.93471ZM136.691 28.624C134.082 29.6431 130.209 30.254 127.315 30.254C120.752 30.254 118.55 28.7449 118.55 23.3236C118.55 17.4537 121.852 16.5161 126.703 16.5161C128.456 16.5161 130.087 16.7199 131.84 17.0868C131.84 13.4586 130.983 12.5617 126.662 12.5617C124.38 12.5617 122.097 12.9694 120.385 13.5809L119.447 9.42326C121.608 8.85252 124.747 8.32189 127.722 8.32189C133.878 8.32189 136.691 10.1972 136.691 16.3938V28.624ZM131.84 20.5119C130.698 20.268 129.23 20.145 127.722 20.145C124.869 20.145 123.85 20.4718 123.85 23.1217C123.85 25.934 124.624 26.3824 127.681 26.3824C129.149 26.3824 130.657 26.0971 131.84 25.6894V20.5119ZM159.234 17.7398V29.6839H154.179V18.1474C154.179 14.723 153.282 12.8891 150.021 12.8891C147.943 12.8891 146.027 13.5 146.027 14.723V29.6832H140.972V0.251953H146.027V9.75006C147.372 9.05701 149.614 8.3232 151.734 8.3232C156.585 8.3232 159.234 9.99466 159.234 17.7398ZM163.516 8.93471H168.572V10.4839C169.305 9.34238 170.895 8.3232 173.871 8.3232C174.564 8.3232 175.257 8.36397 175.991 8.44551V13.256C175.12 13.0717 174.232 12.9761 173.341 12.9707C170.814 12.9707 168.572 13.7854 168.572 15.2937V29.6839H163.517V8.93471M195.069 28.624C192.46 29.6431 188.588 30.254 185.692 30.254C179.13 30.254 176.928 28.7449 176.928 23.3236C176.928 17.4537 180.23 16.5161 185.081 16.5161C186.834 16.5161 188.465 16.7199 190.218 17.0868C190.218 13.4586 189.361 12.5617 185.04 12.5617C182.758 12.5617 180.475 12.9694 178.763 13.5809L177.825 9.42326C179.985 8.85252 183.125 8.32189 186.1 8.32189C192.256 8.32189 195.069 10.1972 195.069 16.3938V28.624ZM190.218 20.5119C189.077 20.268 187.608 20.145 186.1 20.145C183.247 20.145 182.227 20.4718 182.227 23.1217C182.227 25.934 183.002 26.3824 186.059 26.3824C187.473 26.3746 188.877 26.1407 190.217 25.6894V20.5119H190.218ZM217.654 28.7463C215.412 29.6431 211.58 30.2553 208.604 30.2553C201.755 30.2553 198.616 27.8086 198.616 19.2889C198.616 10.8915 202.081 8.3232 207.625 8.3232C209.99 8.3232 211.499 8.89394 212.599 9.50545V0.251953H217.654V28.7463ZM212.599 14.6014C212.599 13.3783 210.804 12.6038 208.522 12.6038C204.975 12.6038 203.834 14.0306 203.834 19.2074C203.834 24.8747 205.016 25.934 208.604 25.934C209.989 25.934 211.539 25.6894 212.599 25.3218V14.6014ZM239.423 28.624C236.814 29.6431 232.942 30.254 230.047 30.254C223.484 30.254 221.283 28.7449 221.283 23.3236C221.283 17.4537 224.584 16.5161 229.435 16.5161C231.188 16.5161 232.819 16.7199 234.572 17.0868C234.572 13.4586 233.716 12.5617 229.395 12.5617C227.112 12.5617 224.83 12.9694 223.117 13.5809L222.178 9.42326C224.34 8.85252 227.479 8.32189 230.455 8.32189C236.61 8.32189 239.423 10.1972 239.423 16.3938V28.624ZM234.572 20.5119C233.431 20.268 231.963 20.145 230.455 20.145C227.601 20.145 226.581 20.4718 226.581 23.1217C226.581 25.934 227.357 26.3824 230.413 26.3824C231.881 26.3824 233.389 26.0971 234.572 25.6894L234.572 20.5119ZM248.23 27.4825C248.23 29.3578 247.741 29.6839 246.069 29.6839C244.521 29.6839 243.991 29.3578 243.991 27.4825C243.991 25.7295 244.521 25.4855 246.069 25.4855C247.741 25.4855 248.23 25.7295 248.23 27.4825ZM268.491 29.1138C266.941 29.8069 264.373 30.2547 262.62 30.2547C256.22 30.2547 252.674 27.7271 252.674 19.2883C252.674 10.8909 256.26 8.52638 262.62 8.52638C264.332 8.52638 267.022 8.97482 268.491 9.54556L267.634 12.0324C266.167 11.3393 264.332 11.0539 262.62 11.0539C257.81 11.0539 255.608 12.3585 255.608 19.3705C255.608 26.0556 257.81 27.7271 262.62 27.7271C264.373 27.7271 266.167 27.3188 267.634 26.6665L268.491 29.1138ZM269.347 28.5832C274.238 22.6733 279.538 15.6613 282.187 11.5438H269.998V9.09778H286.345V10.117C282.717 15.6613 276.684 23.8956 273.749 27.2385H286.387V29.6839H269.347V28.5832Z" fill="#00652E"/>
</svg>
