<svg width="46" height="45" viewBox="0 0 46 45" fill="none" xmlns="http://www.w3.org/2000/svg">
<mask id="path-1-inside-1_8_1200" fill="white">
<path d="M39.2841 14.2084C38.9588 13.1674 38.4383 12.2403 37.7876 11.4433C35.7542 8.88957 32.3706 7.62085 29.0358 8.3528C28.7918 5.9455 27.6043 3.83099 25.8311 2.41588C24.3345 1.19597 22.4313 0.447754 20.3328 0.447754C15.7942 0.447754 12.0853 3.91231 11.6461 8.3528C8.42518 7.62085 5.15546 8.79197 3.10579 11.1993C2.35749 12.0613 1.77186 13.0698 1.41398 14.2084C0.681954 16.453 0.925961 18.779 1.86946 20.7471C2.76416 22.5851 4.27703 24.1141 6.26164 24.9762C4.01676 28.8148 4.97653 33.8084 8.65292 36.4759C12.3456 39.1597 17.4047 38.5254 20.3491 35.1747C22.3337 37.403 25.213 38.444 28.0109 38.0862C29.4262 37.9073 30.8251 37.3705 32.0615 36.4922C35.7379 33.8246 36.6814 28.8311 34.4365 24.9924C35.6566 24.4719 36.7139 23.6749 37.5598 22.7153C39.5281 20.4706 40.2764 17.2663 39.3004 14.2409M20.3491 28.3431C15.9407 28.3431 12.3619 24.7647 12.3619 20.3568C12.3619 15.9488 15.9407 12.3704 20.3491 12.3704C24.7575 12.3704 28.3363 15.9488 28.3363 20.3568C28.3363 24.7647 24.7575 28.3431 20.3491 28.3431Z"/>
</mask>
<path d="M37.7876 11.4433L37.1281 11.9683L37.1346 11.9763L37.7876 11.4433ZM29.0358 8.3528L28.1972 8.4378L28.2926 9.37887L29.2165 9.17608L29.0358 8.3528ZM25.8311 2.41588L25.2986 3.06924L25.3054 3.07468L25.8311 2.41588ZM11.6461 8.3528L11.4593 9.17473L12.3908 9.38642L12.4849 8.43577L11.6461 8.3528ZM3.10579 11.1993L3.74234 11.7518L3.74755 11.7457L3.10579 11.1993ZM1.41398 14.2084L2.21537 14.4697L2.21807 14.4611L1.41398 14.2084ZM1.86946 20.7471L1.10939 21.1115L1.1116 21.116L1.86946 20.7471ZM6.26164 24.9762L6.98923 25.4017L7.46882 24.5816L6.59745 24.2031L6.26164 24.9762ZM8.65292 36.4759L9.14847 35.7941L9.14793 35.7937L8.65292 36.4759ZM20.3491 35.1747L20.9785 34.6141L20.3448 33.9026L19.7159 34.6183L20.3491 35.1747ZM28.0109 38.0862L27.9052 37.25L27.904 37.2501L28.0109 38.0862ZM32.0615 36.4922L32.5497 37.1793L32.5565 37.1744L32.0615 36.4922ZM34.4365 24.9924L34.1058 24.2172L33.2262 24.5924L33.7089 25.4179L34.4365 24.9924ZM37.5598 22.7153L38.1921 23.2726L38.1935 23.271L37.5598 22.7153ZM40.0886 13.957C39.7291 12.8066 39.1546 11.785 38.4405 10.9102L37.1346 11.9763C37.7219 12.6956 38.1884 13.5282 38.4796 14.4598L40.0886 13.957ZM38.4469 10.9182C36.2164 8.11692 32.5086 6.72761 28.8551 7.52952L29.2165 9.17608C32.2325 8.5141 35.2919 9.66222 37.1282 11.9683L38.4469 10.9182ZM29.8744 8.2678C29.6075 5.63463 28.307 3.3134 26.3569 1.75709L25.3054 3.07468C26.9016 4.34857 27.9761 6.25638 28.1972 8.4378L29.8744 8.2678ZM26.3637 1.76256C24.7259 0.427517 22.6368 -0.395123 20.3328 -0.395123V1.29063C22.2257 1.29063 23.9432 1.96442 25.2986 3.06921L26.3637 1.76256ZM20.3328 -0.395123C15.3516 -0.395123 11.2883 3.40739 10.8073 8.26984L12.4849 8.43577C12.8824 4.41724 16.2369 1.29063 20.3328 1.29063V-0.395123ZM11.8329 7.53088C8.29724 6.72741 4.71117 8.01361 2.46402 10.6528L3.74755 11.7457C5.59975 9.57033 8.55311 8.5143 11.4593 9.17473L11.8329 7.53088ZM2.46926 10.6468C1.64971 11.5909 1.00449 12.7002 0.609888 13.9557L2.21807 14.4611C2.53923 13.4394 3.06528 12.5318 3.74231 11.7518L2.46926 10.6468ZM0.61264 13.9471C-0.191352 16.4124 0.0790245 18.9621 1.10941 21.1115L2.62952 20.3828C1.7729 18.5959 1.55526 16.4937 2.21532 14.4697L0.61264 13.9471ZM1.1116 21.116C2.0895 23.125 3.74706 24.8029 5.92582 25.7493L6.59745 24.2031C4.807 23.4254 3.43881 22.0453 2.62732 20.3782L1.1116 21.116ZM5.53404 24.5507C3.07538 28.7549 4.12277 34.2303 8.15792 37.1581L9.14793 35.7937C5.83029 33.3865 4.95813 28.8748 6.98923 25.4017L5.53404 24.5507ZM8.15738 37.1577C12.2075 40.1014 17.7548 39.4038 20.9822 35.731L19.7159 34.6183C17.0546 37.6469 12.4837 38.2181 9.14847 35.7941L8.15738 37.1577ZM19.7196 35.7352C21.8886 38.1706 25.0431 39.3155 28.1179 38.9223L27.904 37.2501C25.3828 37.5726 22.7788 36.6355 20.9785 34.6141L19.7196 35.7352ZM28.1166 38.9224C29.6709 38.7259 31.201 38.1374 32.5496 37.1793L31.5733 35.8051C30.4493 36.6036 29.1815 37.0886 27.9052 37.25L28.1166 38.9224ZM32.5565 37.1744C36.5939 34.2449 37.6213 28.7687 35.1641 24.5669L33.7089 25.4179C35.7415 28.8935 34.8818 33.4044 31.5665 35.81L32.5565 37.1744ZM34.7673 25.7677C36.1114 25.1943 37.2696 24.3192 38.1921 23.2726L36.9275 22.1579C36.1582 23.0307 35.2017 23.7496 34.1058 24.2172L34.7673 25.7677ZM38.1935 23.271C40.3522 20.8093 41.172 17.2972 40.1026 13.9821L38.4982 14.4997C39.3808 17.2355 38.7041 20.132 36.9261 22.1595L38.1935 23.271ZM20.3491 27.5003C16.4061 27.5003 13.2047 24.2991 13.2047 20.3568H11.519C11.519 25.2303 15.4752 29.186 20.3491 29.186V27.5003ZM13.2047 20.3568C13.2047 16.4144 16.4061 13.2133 20.3491 13.2133V11.5275C15.4752 11.5275 11.519 15.4832 11.519 20.3568H13.2047ZM20.3491 13.2133C24.2921 13.2133 27.4934 16.4144 27.4934 20.3568H29.1792C29.1792 15.4832 25.2229 11.5275 20.3491 11.5275V13.2133ZM27.4934 20.3568C27.4934 24.2991 24.2921 27.5003 20.3491 27.5003V29.186C25.2229 29.186 29.1792 25.2303 29.1792 20.3568H27.4934Z" fill="#999695" fill-opacity="0.25" mask="url(#path-1-inside-1_8_1200)"/>
</svg>
